<?xml version="1.0" standalone="no"?><!-- Generator: Gravit.io --><svg xmlns="http://www.w3.org/2000/svg" xmlns:xlink="http://www.w3.org/1999/xlink" style="isolation:isolate" viewBox="0 0 64 64" width="64" height="64"><defs><clipPath id="_clipPath_s6XjfcC5f9ov3NwIUDUzhzE0BF87ZpcJ"><rect width="64" height="64"/></clipPath></defs><g clip-path="url(#_clipPath_s6XjfcC5f9ov3NwIUDUzhzE0BF87ZpcJ)"><mask id="_mask_LOkr9AW6puNYfow4yJEzoMGh65kYIu93" x="-200%" y="-200%" width="400%" height="400%"><rect x="0" y="0" width="100%" height="100%" style="fill:white;"/><path d=" M 26.238 15.601 L 31.068 20.431 C 32.19 20.052 33.477 20.306 34.372 21.201 C 35.272 22.102 35.524 23.4 35.135 24.526 L 39.791 29.182 C 40.918 28.793 42.217 29.045 43.116 29.945 C 44.373 31.202 44.373 33.239 43.116 34.497 C 41.858 35.754 39.821 35.754 38.563 34.497 C 37.618 33.551 37.384 32.161 37.863 30.997 L 33.521 26.655 L 33.521 38.08 C 33.827 38.232 34.117 38.434 34.372 38.689 C 35.629 39.946 35.629 41.983 34.372 43.241 C 33.115 44.498 31.077 44.498 29.821 43.241 C 28.564 41.983 28.564 39.946 29.821 38.689 C 30.131 38.379 30.491 38.144 30.875 37.987 L 30.875 26.455 C 30.491 26.298 30.132 26.065 29.821 25.752 C 28.869 24.801 28.64 23.403 29.128 22.234 L 24.366 17.471" fill="black" stroke="none"/></mask><path d=" M 26.238 15.601 L 31.068 20.431 C 32.19 20.052 33.477 20.306 34.372 21.201 C 35.272 22.102 35.524 23.4 35.135 24.526 L 39.791 29.182 C 40.918 28.793 42.217 29.045 43.116 29.945 C 44.373 31.202 44.373 33.239 43.116 34.497 C 41.858 35.754 39.821 35.754 38.563 34.497 C 37.618 33.551 37.384 32.161 37.863 30.997 L 33.521 26.655 L 33.521 38.08 C 33.827 38.232 34.117 38.434 34.372 38.689 C 35.629 39.946 35.629 41.983 34.372 43.241 C 33.115 44.498 31.077 44.498 29.821 43.241 C 28.564 41.983 28.564 39.946 29.821 38.689 C 30.131 38.379 30.491 38.144 30.875 37.987 L 30.875 26.455 C 30.491 26.298 30.132 26.065 29.821 25.752 C 28.869 24.801 28.64 23.403 29.128 22.234 L 24.366 17.471" fill="none" mask="url(#_mask_LOkr9AW6puNYfow4yJEzoMGh65kYIu93)" vector-effect="non-scaling-stroke" stroke-width="4" stroke="rgb(255,255,255)" stroke-linejoin="round" stroke-linecap="butt" stroke-miterlimit="4"/><mask id="_mask_X29ar45VYOkBGXQneupSIwpWgpclcCjd"><path d=" M 52.208 30.129 L 33.87 11.793 C 32.815 10.736 31.102 10.736 30.045 11.793 L 11.792 30.044 C 10.736 31.101 10.736 32.814 11.792 33.87 L 30.131 52.207 C 31.186 53.264 32.899 53.264 33.956 52.207 L 52.208 33.955 C 53.264 32.899 53.264 31.185 52.208 30.129 Z " fill="white" stroke="none"/></mask><path d=" M 52.208 30.129 L 33.87 11.793 C 32.815 10.736 31.102 10.736 30.045 11.793 L 11.792 30.044 C 10.736 31.101 10.736 32.814 11.792 33.87 L 30.131 52.207 C 31.186 53.264 32.899 53.264 33.956 52.207 L 52.208 33.955 C 53.264 32.899 53.264 31.185 52.208 30.129 Z " fill="none" mask="url(#_mask_X29ar45VYOkBGXQneupSIwpWgpclcCjd)" vector-effect="non-scaling-stroke" stroke-width="4" stroke="rgb(255,255,255)" stroke-opacity="0.6" stroke-linejoin="miter" stroke-linecap="butt" stroke-miterlimit="4"/></g></svg>