<?xml version="1.0" standalone="no"?><!-- Generator: Gravit.io --><svg xmlns="http://www.w3.org/2000/svg" xmlns:xlink="http://www.w3.org/1999/xlink" style="isolation:isolate" viewBox="0 0 64 64" width="64" height="64"><defs><clipPath id="_clipPath_dVNzWB7OJ205bFR03KFB15kAjyw9VGZU"><rect width="64" height="64"/></clipPath></defs><g clip-path="url(#_clipPath_dVNzWB7OJ205bFR03KFB15kAjyw9VGZU)"><g id="Group"><g opacity="0"><rect x="0" y="0" width="64" height="64" transform="matrix(1,0,0,1,0,0)" fill="rgb(255,255,255)"/></g></g><path d=" M 53 50.723 L 53 38 L 38.087 53 L 50.5 53 C 51.649 53 53 51.901 53 50.723 Z " fill="rgb(255,255,255)"/><g id="Group" style="opacity:0.6;"><g opacity="0.6"><path d=" M 15.048 12 L 48.952 12 C 50.634 12 52 13.366 52 15.048 L 52 48.952 C 52 50.634 50.634 52 48.952 52 L 15.048 52 C 13.366 52 12 50.634 12 48.952 L 12 15.048 C 12 13.366 13.366 12 15.048 12 Z " fill="none" vector-effect="non-scaling-stroke" stroke-width="2" stroke="rgb(255,255,255)" stroke-linejoin="miter" stroke-linecap="butt" stroke-miterlimit="4"/></g></g></g></svg>