<?xml version="1.0" standalone="no"?><!-- Generator: Gravit.io --><svg xmlns="http://www.w3.org/2000/svg" xmlns:xlink="http://www.w3.org/1999/xlink" style="isolation:isolate" viewBox="0 0 64 64" width="64" height="64"><defs><clipPath id="_clipPath_hdfn2q7zZoGjpKCnVl4bQ9PiToKW5dI9"><rect width="64" height="64"/></clipPath></defs><g clip-path="url(#_clipPath_hdfn2q7zZoGjpKCnVl4bQ9PiToKW5dI9)"><g id="Group"><mask id="_mask_3SPyRCGOQC1COM0ADG5i1rfHf3pz1heK"><path d=" M 52 32 C 52 43.046 43.045 52 32 52 C 20.954 52 12 43.046 12 32 C 12 20.954 20.954 12 32 12 C 43.045 12 52 20.954 52 32 Z " fill="white" stroke="none"/></mask><path d=" M 52 32 C 52 43.046 43.045 52 32 52 C 20.954 52 12 43.046 12 32 C 12 20.954 20.954 12 32 12 C 43.045 12 52 20.954 52 32 Z " fill="none" mask="url(#_mask_3SPyRCGOQC1COM0ADG5i1rfHf3pz1heK)" vector-effect="non-scaling-stroke" stroke-width="4" stroke="rgb(255,255,255)" stroke-opacity="0.6" stroke-linejoin="miter" stroke-linecap="butt" stroke-miterlimit="4"/><mask id="_mask_AzM0jJ0LAGUygoNXZzOcvIj6dKZ611TI"><path d=" M 24.327 39.924 C 25.716 41.337 27.43 42.357 29.281 42.893 C 29.844 43.056 30.42 43.174 31.004 43.245 C 31.381 43.292 31.761 43.317 32.143 43.323 C 33.169 43.338 34.188 43.204 35.166 42.935 C 36.553 42.553 37.862 41.897 38.997 41.003 C 39.321 40.749 39.63 40.476 39.923 40.184 C 40.72 39.391 41.375 38.486 41.874 37.506 C 42.64 36.005 43.045 34.327 43.045 32.615 C 43.045 32.484 43.042 32.353 43.037 32.222 C 43.001 31.194 42.845 30.218 42.57 29.306 C 42.288 28.375 41.884 27.512 41.355 26.727 C 41.302 26.648 41.247 26.569 41.192 26.492 C 40.471 25.489 39.54 24.622 38.4 23.918 C 37.211 23.182 35.803 22.602 34.158 22.254 C 34.154 22.173 34.145 22.092 34.145 22.007 C 34.145 18.423 36.44 15.371 39.66 14.228 C 39.961 14.121 40.091 14.033 40.104 13.964 C 40.105 13.96 40.102 13.939 40.101 13.934 C 40.069 13.835 39.786 13.782 39.471 13.775 C 38.984 13.764 38.398 13.79 37.737 13.863 C 36.973 13.948 36.109 14.095 35.189 14.32 C 34.855 14.402 34.511 14.494 34.162 14.597 C 33.622 14.756 33.07 14.943 32.511 15.156 C 30.639 15.878 28.705 16.923 26.997 18.388 C 24.434 20.556 22.248 23.696 21.333 27.412 C 21.104 28.343 20.955 29.309 20.899 30.305 C 20.895 30.376 20.892 30.445 20.889 30.515 C 20.861 31.21 20.883 31.906 20.957 32.592 C 21.03 33.266 21.153 33.932 21.326 34.581 C 21.348 34.67 21.373 34.757 21.398 34.845 C 21.727 35.988 22.213 37.082 22.859 38.085 C 23.28 38.741 23.769 39.357 24.327 39.924 Z " fill="white" stroke="none"/></mask><path d=" M 24.327 39.924 C 25.716 41.337 27.43 42.357 29.281 42.893 C 29.844 43.056 30.42 43.174 31.004 43.245 C 31.381 43.292 31.761 43.317 32.143 43.323 C 33.169 43.338 34.188 43.204 35.166 42.935 C 36.553 42.553 37.862 41.897 38.997 41.003 C 39.321 40.749 39.63 40.476 39.923 40.184 C 40.72 39.391 41.375 38.486 41.874 37.506 C 42.64 36.005 43.045 34.327 43.045 32.615 C 43.045 32.484 43.042 32.353 43.037 32.222 C 43.001 31.194 42.845 30.218 42.57 29.306 C 42.288 28.375 41.884 27.512 41.355 26.727 C 41.302 26.648 41.247 26.569 41.192 26.492 C 40.471 25.489 39.54 24.622 38.4 23.918 C 37.211 23.182 35.803 22.602 34.158 22.254 C 34.154 22.173 34.145 22.092 34.145 22.007 C 34.145 18.423 36.44 15.371 39.66 14.228 C 39.961 14.121 40.091 14.033 40.104 13.964 C 40.105 13.96 40.102 13.939 40.101 13.934 C 40.069 13.835 39.786 13.782 39.471 13.775 C 38.984 13.764 38.398 13.79 37.737 13.863 C 36.973 13.948 36.109 14.095 35.189 14.32 C 34.855 14.402 34.511 14.494 34.162 14.597 C 33.622 14.756 33.07 14.943 32.511 15.156 C 30.639 15.878 28.705 16.923 26.997 18.388 C 24.434 20.556 22.248 23.696 21.333 27.412 C 21.104 28.343 20.955 29.309 20.899 30.305 C 20.895 30.376 20.892 30.445 20.889 30.515 C 20.861 31.21 20.883 31.906 20.957 32.592 C 21.03 33.266 21.153 33.932 21.326 34.581 C 21.348 34.67 21.373 34.757 21.398 34.845 C 21.727 35.988 22.213 37.082 22.859 38.085 C 23.28 38.741 23.769 39.357 24.327 39.924 Z " fill="none" mask="url(#_mask_AzM0jJ0LAGUygoNXZzOcvIj6dKZ611TI)" vector-effect="non-scaling-stroke" stroke-width="4" stroke="rgb(255,255,255)" stroke-linejoin="miter" stroke-linecap="butt" stroke-miterlimit="4"/></g></g></svg>