<?xml version="1.0" standalone="no"?><!-- Generator: Gravit.io --><svg xmlns="http://www.w3.org/2000/svg" xmlns:xlink="http://www.w3.org/1999/xlink" style="isolation:isolate" viewBox="0 0 64 64" width="64" height="64"><defs><clipPath id="_clipPath_n5o7N3v1vpOfPAbTXvvWlRXtQxTBV5aI"><rect width="64" height="64"/></clipPath></defs><g clip-path="url(#_clipPath_n5o7N3v1vpOfPAbTXvvWlRXtQxTBV5aI)"><g id="Group"><mask id="_mask_G3G1N2B7XDVzj4ZgQGEJ2WYRottw4pbv"><path d=" M 34.471 12.118 L 34.471 32.706 L 34.471 32.706 L 34.471 32.706 C 34.471 33.647 33.765 34.353 32.824 34.353 L 30.353 34.353 L 30.353 34.353 C 30.235 34.353 30.118 34.471 30.118 34.588 L 30.118 51.882 C 30.706 51.882 31.294 52 32 52 C 43.059 52 52 43.059 52 32 C 52 21.765 44.353 13.294 34.471 12.118 Z " fill="white" stroke="none"/></mask><path d=" M 34.471 12.118 L 34.471 32.706 L 34.471 32.706 L 34.471 32.706 C 34.471 33.647 33.765 34.353 32.824 34.353 L 30.353 34.353 L 30.353 34.353 C 30.235 34.353 30.118 34.471 30.118 34.588 L 30.118 51.882 C 30.706 51.882 31.294 52 32 52 C 43.059 52 52 43.059 52 32 C 52 21.765 44.353 13.294 34.471 12.118 Z " fill="none" mask="url(#_mask_G3G1N2B7XDVzj4ZgQGEJ2WYRottw4pbv)" vector-effect="non-scaling-stroke" stroke-width="4" stroke="rgb(255,255,255)" stroke-opacity="0.6" stroke-linejoin="miter" stroke-linecap="butt" stroke-miterlimit="4"/><mask id="_mask_kWj5lKJLJrgpfGLISPdsLKswCESxMFkC"><path d=" M 34.526 42.993 C 33.385 42.993 32.529 42.043 32.529 40.997 C 32.529 39.856 33.48 39 34.526 39 C 35.667 39 36.523 39.951 36.523 40.997 C 36.618 42.043 35.667 42.993 34.526 42.993 Z " fill="white" stroke="none"/></mask><path d=" M 34.526 42.993 C 33.385 42.993 32.529 42.043 32.529 40.997 C 32.529 39.856 33.48 39 34.526 39 C 35.667 39 36.523 39.951 36.523 40.997 C 36.618 42.043 35.667 42.993 34.526 42.993 Z " fill="none" mask="url(#_mask_kWj5lKJLJrgpfGLISPdsLKswCESxMFkC)" vector-effect="non-scaling-stroke" stroke-width="4" stroke="rgb(255,255,255)" stroke-linejoin="miter" stroke-linecap="butt" stroke-miterlimit="4"/><mask id="_mask_kEh4KB9ike7pJBXvPYANJFQFt48r1p3X"><path d=" M 39.412 43 C 38.269 43 37.412 42.048 37.412 41 C 37.412 39.857 38.364 39 39.412 39 C 40.555 39 41.412 39.952 41.412 41 C 41.412 42.048 40.555 43 39.412 43 Z " fill="white" stroke="none"/></mask><path d=" M 39.412 43 C 38.269 43 37.412 42.048 37.412 41 C 37.412 39.857 38.364 39 39.412 39 C 40.555 39 41.412 39.952 41.412 41 C 41.412 42.048 40.555 43 39.412 43 Z " fill="none" mask="url(#_mask_kEh4KB9ike7pJBXvPYANJFQFt48r1p3X)" vector-effect="non-scaling-stroke" stroke-width="4" stroke="rgb(255,255,255)" stroke-linejoin="miter" stroke-linecap="butt" stroke-miterlimit="4"/><mask id="_mask_iqPBIIneDLuDYwD04zWEj5sv8GW8bfCO"><path d=" M 44.294 43 C 43.151 43 42.294 42.048 42.294 41 C 42.294 39.857 43.246 39 44.294 39 C 45.437 39 46.294 39.952 46.294 41 C 46.294 42.048 45.437 43 44.294 43 Z " fill="white" stroke="none"/></mask><path d=" M 44.294 43 C 43.151 43 42.294 42.048 42.294 41 C 42.294 39.857 43.246 39 44.294 39 C 45.437 39 46.294 39.952 46.294 41 C 46.294 42.048 45.437 43 44.294 43 Z " fill="none" mask="url(#_mask_iqPBIIneDLuDYwD04zWEj5sv8GW8bfCO)" vector-effect="non-scaling-stroke" stroke-width="4" stroke="rgb(255,255,255)" stroke-linejoin="miter" stroke-linecap="butt" stroke-miterlimit="4"/><mask id="_mask_GAq9V9ewV0EDFzh3PH6bMuOGXk9nTr6O"><path d=" M 32 12 C 20.941 12 12 20.941 12 32 C 12 41.647 18.706 49.647 27.765 51.529 L 27.765 33.529 L 27.765 33.529 C 27.765 32.706 28.471 32 29.294 31.882 L 29.294 31.882 L 30.118 31.882 L 31.765 31.882 C 31.882 31.882 32 31.765 32 31.647 L 32 12 L 32 12 Z " fill="white" stroke="none"/></mask><path d=" M 32 12 C 20.941 12 12 20.941 12 32 C 12 41.647 18.706 49.647 27.765 51.529 L 27.765 33.529 L 27.765 33.529 C 27.765 32.706 28.471 32 29.294 31.882 L 29.294 31.882 L 30.118 31.882 L 31.765 31.882 C 31.882 31.882 32 31.765 32 31.647 L 32 12 L 32 12 Z " fill="none" mask="url(#_mask_GAq9V9ewV0EDFzh3PH6bMuOGXk9nTr6O)" vector-effect="non-scaling-stroke" stroke-width="4" stroke="rgb(255,255,255)" stroke-linejoin="miter" stroke-linecap="butt" stroke-miterlimit="4"/><mask id="_mask_3BmMmwdGVwEBwooQKzjdpeXO7lcZ76jT"><path d=" M 26.647 27.529 C 25.504 27.529 24.647 26.577 24.647 25.529 C 24.647 24.387 25.599 23.529 26.647 23.529 C 27.79 23.529 28.647 24.482 28.647 25.529 C 28.647 26.577 27.79 27.529 26.647 27.529 Z " fill="white" stroke="none"/></mask><path d=" M 26.647 27.529 C 25.504 27.529 24.647 26.577 24.647 25.529 C 24.647 24.387 25.599 23.529 26.647 23.529 C 27.79 23.529 28.647 24.482 28.647 25.529 C 28.647 26.577 27.79 27.529 26.647 27.529 Z " fill="none" mask="url(#_mask_3BmMmwdGVwEBwooQKzjdpeXO7lcZ76jT)" vector-effect="non-scaling-stroke" stroke-width="4" stroke="rgb(255,255,255)" stroke-opacity="0.6" stroke-linejoin="miter" stroke-linecap="butt" stroke-miterlimit="4"/></g></g></svg>