<?xml version="1.0" standalone="no"?><!-- Generator: Gravit.io --><svg xmlns="http://www.w3.org/2000/svg" xmlns:xlink="http://www.w3.org/1999/xlink" style="isolation:isolate" viewBox="0 0 64 64" width="64" height="64"><defs><clipPath id="_clipPath_DQscbtpea3R3nbAfgxKeae1zN8RVlViT"><rect width="64" height="64"/></clipPath></defs><g clip-path="url(#_clipPath_DQscbtpea3R3nbAfgxKeae1zN8RVlViT)"><mask id="_mask_uiL2G3HmCjjqYftowRGIui0hjOM0Mi36"><path d=" M 52 48 C 52 50.207 50.207 52 48 52 L 16 52 C 13.797 52 12 50.207 12 48 L 12 16 C 12 13.793 13.797 12 16 12 L 48 12.004 C 50.207 12.004 52 13.793 52 16 L 52 48 Z " fill="white" stroke="none"/></mask><path d=" M 52 48 C 52 50.207 50.207 52 48 52 L 16 52 C 13.797 52 12 50.207 12 48 L 12 16 C 12 13.793 13.797 12 16 12 L 48 12.004 C 50.207 12.004 52 13.793 52 16 L 52 48 Z " fill="none" mask="url(#_mask_uiL2G3HmCjjqYftowRGIui0hjOM0Mi36)" vector-effect="non-scaling-stroke" stroke-width="4" stroke="rgb(255,255,255)" stroke-opacity="0.6" stroke-linejoin="miter" stroke-linecap="butt" stroke-miterlimit="4"/><mask id="_mask_MPjARIWkkynvz0P4LEU89bnRTQl7ZLN5"><path d=" M 31.998 46.821 C 39.483 46.821 42.83 40.866 42.83 34.966 C 42.83 26.656 37.057 17.183 31.998 17.183 C 26.951 17.183 21.178 26.656 21.178 34.966 C 21.178 40.866 24.525 46.821 31.998 46.821 Z " fill="white" stroke="none"/></mask><path d=" M 31.998 46.821 C 39.483 46.821 42.83 40.866 42.83 34.966 C 42.83 26.656 37.057 17.183 31.998 17.183 C 26.951 17.183 21.178 26.656 21.178 34.966 C 21.178 40.866 24.525 46.821 31.998 46.821 Z " fill="none" mask="url(#_mask_MPjARIWkkynvz0P4LEU89bnRTQl7ZLN5)" vector-effect="non-scaling-stroke" stroke-width="4" stroke="rgb(255,255,255)" stroke-linejoin="miter" stroke-linecap="square" stroke-miterlimit="3"/></g></svg>