<?xml version="1.0" standalone="no"?><!-- Generator: Gravit.io --><svg xmlns="http://www.w3.org/2000/svg" xmlns:xlink="http://www.w3.org/1999/xlink" style="isolation:isolate" viewBox="0 0 64 64" width="64" height="64"><defs><clipPath id="_clipPath_Up893aw4xhigxz217WknkU39zOPhtFbg"><rect width="64" height="64"/></clipPath></defs><g clip-path="url(#_clipPath_Up893aw4xhigxz217WknkU39zOPhtFbg)"><g id="g16346"><g id="g16352"><mask id="_mask_wnOJhrrXIA6aVehn0Vold5atHBWlwv1V" x="-200%" y="-200%" width="400%" height="400%"><rect x="0" y="0" width="100%" height="100%" style="fill:white;"/><path d=" M 42.691 27.332 L 42.632 27.332 C 41.692 27.332 40.928 28.097 40.928 29.036 L 40.928 31.634 L 44.396 31.634 L 44.396 29.036 C 44.396 28.097 43.632 27.332 42.691 27.332 Z " fill="black" stroke="none"/></mask><path d=" M 42.691 27.332 L 42.632 27.332 C 41.692 27.332 40.928 28.097 40.928 29.036 L 40.928 31.634 L 44.396 31.634 L 44.396 29.036 C 44.396 28.097 43.632 27.332 42.691 27.332 Z " fill="none" mask="url(#_mask_wnOJhrrXIA6aVehn0Vold5atHBWlwv1V)" vector-effect="non-scaling-stroke" stroke-width="4" stroke="rgb(255,255,255)" stroke-linejoin="miter" stroke-linecap="butt" stroke-miterlimit="4"/></g><mask id="_mask_pPdpY8lSNBHnAPtQUyYeKLMzvWzNxlyW"><path d=" M 12 52 L 52 52 L 52 12 L 12 12 L 12 52 Z " fill="white" stroke="none"/></mask><path d=" M 12 52 L 52 52 L 52 12 L 12 12 L 12 52 Z " fill="none" mask="url(#_mask_pPdpY8lSNBHnAPtQUyYeKLMzvWzNxlyW)" vector-effect="non-scaling-stroke" stroke-width="4" stroke="rgb(255,255,255)" stroke-opacity="0.6" stroke-linejoin="miter" stroke-linecap="butt" stroke-miterlimit="4"/><mask id="_mask_C8kPj8cuXrtRNh0Zl9YmAvr1PkFNHMfE" x="-200%" y="-200%" width="400%" height="400%"><rect x="0" y="0" width="100%" height="100%" style="fill:white;"/><path d=" M 21.362 27.428 L 19.604 27.428 L 19.604 36.55 L 21.362 36.55 C 22.306 36.55 23.072 35.785 23.072 34.841 L 23.072 29.138 C 23.072 28.193 22.306 27.428 21.362 27.428 Z " fill="black" stroke="none"/></mask><path d=" M 21.362 27.428 L 19.604 27.428 L 19.604 36.55 L 21.362 36.55 C 22.306 36.55 23.072 35.785 23.072 34.841 L 23.072 29.138 C 23.072 28.193 22.306 27.428 21.362 27.428 Z " fill="none" mask="url(#_mask_C8kPj8cuXrtRNh0Zl9YmAvr1PkFNHMfE)" vector-effect="non-scaling-stroke" stroke-width="4" stroke="rgb(255,255,255)" stroke-linejoin="miter" stroke-linecap="butt" stroke-miterlimit="4"/><mask id="_mask_UN4NZayMZmhX9wulVAirymblMDbzkVTM"><path d=" M 21.328 39.063 L 17.091 39.063 L 17.091 24.915 L 21.327 24.915 C 23.679 24.915 25.585 26.821 25.585 29.172 L 25.586 34.805 C 25.586 37.157 23.679 39.063 21.328 39.063" fill="white" stroke="none"/></mask><path d=" M 21.328 39.063 L 17.091 39.063 L 17.091 24.915 L 21.327 24.915 C 23.679 24.915 25.585 26.821 25.585 29.172 L 25.586 34.805 C 25.586 37.157 23.679 39.063 21.328 39.063" fill="none" mask="url(#_mask_UN4NZayMZmhX9wulVAirymblMDbzkVTM)" vector-effect="non-scaling-stroke" stroke-width="4" stroke="rgb(255,255,255)" stroke-linejoin="miter" stroke-linecap="butt" stroke-miterlimit="4"/><mask id="_mask_5ohhih6PTntV1YGOEXAxxHDiyNUXPaO5"><path d=" M 36.18 39.063 L 33.668 39.063 L 33.668 29.133 C 33.668 28.191 32.904 27.428 31.963 27.428 L 30.199 27.428 L 30.199 39.063 L 27.687 39.063 L 27.687 24.915 L 31.963 24.915 C 34.289 24.915 36.18 26.807 36.18 29.132 L 36.18 39.063 Z " fill="white" stroke="none"/></mask><path d=" M 36.18 39.063 L 33.668 39.063 L 33.668 29.133 C 33.668 28.191 32.904 27.428 31.963 27.428 L 30.199 27.428 L 30.199 39.063 L 27.687 39.063 L 27.687 24.915 L 31.963 24.915 C 34.289 24.915 36.18 26.807 36.18 29.132 L 36.18 39.063 Z " fill="none" mask="url(#_mask_5ohhih6PTntV1YGOEXAxxHDiyNUXPaO5)" vector-effect="non-scaling-stroke" stroke-width="4" stroke="rgb(255,255,255)" stroke-linejoin="miter" stroke-linecap="butt" stroke-miterlimit="4"/><mask id="_mask_SVY7EwtS6aUrxsBVoOV8Fr7wu40oYLFI"><path d=" M 46.909 39.063 L 44.396 39.063 L 44.396 34.002 L 40.928 34.002 L 40.928 39.063 L 38.414 39.063 L 38.414 29.036 C 38.414 26.711 40.307 24.82 42.632 24.82 L 42.691 24.82 C 45.017 24.82 46.909 26.711 46.909 29.036 L 46.909 39.063 Z " fill="white" stroke="none"/></mask><path d=" M 46.909 39.063 L 44.396 39.063 L 44.396 34.002 L 40.928 34.002 L 40.928 39.063 L 38.414 39.063 L 38.414 29.036 C 38.414 26.711 40.307 24.82 42.632 24.82 L 42.691 24.82 C 45.017 24.82 46.909 26.711 46.909 29.036 L 46.909 39.063 Z " fill="none" mask="url(#_mask_SVY7EwtS6aUrxsBVoOV8Fr7wu40oYLFI)" vector-effect="non-scaling-stroke" stroke-width="4" stroke="rgb(255,255,255)" stroke-linejoin="miter" stroke-linecap="butt" stroke-miterlimit="4"/></g></g></svg>