<?xml version="1.0" standalone="no"?><!-- Generator: Gravit.io --><svg xmlns="http://www.w3.org/2000/svg" xmlns:xlink="http://www.w3.org/1999/xlink" style="isolation:isolate" viewBox="0 0 64 64" width="64" height="64"><defs><clipPath id="_clipPath_eaMNQ3Wx18k7FrQRgQsIlbaPgRcOat2i"><rect width="64" height="64"/></clipPath></defs><g clip-path="url(#_clipPath_eaMNQ3Wx18k7FrQRgQsIlbaPgRcOat2i)"><path d=" M 50.999 27.737 L 13.001 27.737 L 13.001 36.297 L 50.999 36.297 L 50.999 27.737 Z " fill="rgb(255,255,255)" fill-opacity="0.6"/><path d=" M 40.64 49.029 L 46.999 44.854 L 17.001 44.854 L 24.254 49.225 L 31.154 51.418 L 32.163 51.62 L 40.64 49.029 Z " fill="rgb(255,255,255)" fill-opacity="0.6"/><path d=" M 46.997 19.178 L 17 19.178 C 21.168 16.025 25.616 14.224 30.771 12.584 L 33.45 12.909 C 38.093 13.413 42.619 15.512 46.997 19.178 Z " fill="rgb(255,255,255)" fill-opacity="0.6"/><mask id="_mask_0tK3BPEulMw4fz4Sh9NNfaFne4BBbdpB"><path d=" M 12 32 C 12 43.046 20.953 51.998 32.001 51.998 C 43.045 51.998 52 43.046 52 32 C 52 20.954 43.045 12.002 32.001 12.002 C 20.953 12.002 12 20.954 12 32" fill="white" stroke="none"/></mask><path d=" M 12 32 C 12 43.046 20.953 51.998 32.001 51.998 C 43.045 51.998 52 43.046 52 32 C 52 20.954 43.045 12.002 32.001 12.002 C 20.953 12.002 12 20.954 12 32" fill="none" mask="url(#_mask_0tK3BPEulMw4fz4Sh9NNfaFne4BBbdpB)" vector-effect="non-scaling-stroke" stroke-width="4" stroke="rgb(255,255,255)" stroke-linejoin="miter" stroke-linecap="butt" stroke-miterlimit="4"/></g></svg>