<?xml version="1.0" standalone="no"?><!-- Generator: Gravit.io --><svg xmlns="http://www.w3.org/2000/svg" xmlns:xlink="http://www.w3.org/1999/xlink" style="isolation:isolate" viewBox="0 0 64 64" width="64" height="64"><defs><clipPath id="_clipPath_6gS45LZkshFIicsey1YGnvTGQxvwyqJ7"><rect width="64" height="64"/></clipPath></defs><g clip-path="url(#_clipPath_6gS45LZkshFIicsey1YGnvTGQxvwyqJ7)"><g id="Group"><g id="T"><mask id="_mask_tFk5hm21F0zbmBGukc0y6Th5NEmiBE88"><path d=" M 12 26.622 L 12 31.034 L 26.167 29.476 L 26.167 24.631 L 12 26.622 Z " fill="white" stroke="none"/></mask><path d=" M 12 26.622 L 12 31.034 L 26.167 29.476 L 26.167 24.631 L 12 26.622 Z " fill="none" mask="url(#_mask_tFk5hm21F0zbmBGukc0y6Th5NEmiBE88)" vector-effect="non-scaling-stroke" stroke-width="4" stroke="rgb(255,255,255)" stroke-opacity="0.6" stroke-linejoin="miter" stroke-linecap="butt" stroke-miterlimit="4"/><mask id="_mask_IoMQxc15YwNzQnN7FiG9nAhg69Smb4tt"><path d=" M 17.08 31.354 L 17.08 50.188 L 22.267 50.188 L 22.267 30.823 L 17.08 31.354 Z " fill="white" stroke="none"/></mask><path d=" M 17.08 31.354 L 17.08 50.188 L 22.267 50.188 L 22.267 30.823 L 17.08 31.354 Z " fill="none" mask="url(#_mask_IoMQxc15YwNzQnN7FiG9nAhg69Smb4tt)" vector-effect="non-scaling-stroke" stroke-width="4" stroke="rgb(255,255,255)" stroke-opacity="0.6" stroke-linejoin="miter" stroke-linecap="butt" stroke-miterlimit="4"/></g><g id="2"><mask id="_mask_E9uorvLl0NLGkjYaMmn2jfl4jyy3KzIE"><path d=" M 48.712 16.454 C 46.447 14.315 43.127 13.437 39.496 13.959 L 39.496 21.797 C 40.966 21.715 42.158 22.261 42.689 23.36 C 43.527 25.092 42.662 27.691 40.622 30.1 C 37.473 33.816 29.099 41.422 29.099 41.422 L 41.12 41.027 C 48.465 33.851 51.103 29.495 51.577 24.058 C 51.825 21.182 50.781 18.411 48.712 16.454 Z " fill="white" stroke="none"/></mask><path d=" M 48.712 16.454 C 46.447 14.315 43.127 13.437 39.496 13.959 L 39.496 21.797 C 40.966 21.715 42.158 22.261 42.689 23.36 C 43.527 25.092 42.662 27.691 40.622 30.1 C 37.473 33.816 29.099 41.422 29.099 41.422 L 41.12 41.027 C 48.465 33.851 51.103 29.495 51.577 24.058 C 51.825 21.182 50.781 18.411 48.712 16.454 Z " fill="none" mask="url(#_mask_E9uorvLl0NLGkjYaMmn2jfl4jyy3KzIE)" vector-effect="non-scaling-stroke" stroke-width="4" stroke="rgb(255,255,255)" stroke-linejoin="miter" stroke-linecap="butt" stroke-miterlimit="4"/><mask id="_mask_9bEgZDsoB3U4PAz7nINCWZiT0YoizfS5"><path d=" M 52 50.188 L 52 41.986 L 27.617 42.721 M 27.617 42.721 L 27.62 50.188 L 52 50.188" fill-rule="evenodd" fill="white" stroke="none"/></mask><path d=" M 52 50.188 L 52 41.986 L 27.617 42.721 M 27.617 42.721 L 27.62 50.188 L 52 50.188" fill-rule="evenodd" fill="none" mask="url(#_mask_9bEgZDsoB3U4PAz7nINCWZiT0YoizfS5)" vector-effect="non-scaling-stroke" stroke-width="4" stroke="rgb(255,255,255)" stroke-linejoin="miter" stroke-linecap="butt" stroke-miterlimit="4"/><mask id="_mask_LruBtojpYqyyhS9ehlaSa8zg9ZwKeGOY"><path d=" M 38.094 14.135 C 31.011 15.643 27.533 20.855 27.934 29.358 L 35.486 28.688 C 35.142 23.884 36.612 22.744 38.098 22.117 L 38.094 14.135 Z " fill="white" stroke="none"/></mask><path d=" M 38.094 14.135 C 31.011 15.643 27.533 20.855 27.934 29.358 L 35.486 28.688 C 35.142 23.884 36.612 22.744 38.098 22.117 L 38.094 14.135 Z " fill="none" mask="url(#_mask_LruBtojpYqyyhS9ehlaSa8zg9ZwKeGOY)" vector-effect="non-scaling-stroke" stroke-width="4" stroke="rgb(255,255,255)" stroke-linejoin="miter" stroke-linecap="butt" stroke-miterlimit="4"/></g></g></g></svg>