<?xml version="1.0" standalone="no"?><!-- Generator: Gravit.io --><svg xmlns="http://www.w3.org/2000/svg" xmlns:xlink="http://www.w3.org/1999/xlink" style="isolation:isolate" viewBox="0 0 64 64" width="64" height="64"><defs><clipPath id="_clipPath_FLqd477bcOQGAJVvpzVeaXTfXmYPX3P3"><rect width="64" height="64"/></clipPath></defs><g clip-path="url(#_clipPath_FLqd477bcOQGAJVvpzVeaXTfXmYPX3P3)"><g id="Group"><g id="Group"><mask id="_mask_E4WqKkjYBW0ys6B37SMKlWqUlUCJVVsX"><path d=" M 12 32 C 12 20.962 20.962 12 32 12 C 43.038 12 52 20.962 52 32 C 52 43.038 43.038 52 32 52 C 20.962 52 12 43.038 12 32 Z " fill="white" stroke="none"/></mask><path d=" M 12 32 C 12 20.962 20.962 12 32 12 C 43.038 12 52 20.962 52 32 C 52 43.038 43.038 52 32 52 C 20.962 52 12 43.038 12 32 Z " fill="none" mask="url(#_mask_E4WqKkjYBW0ys6B37SMKlWqUlUCJVVsX)" vector-effect="non-scaling-stroke" stroke-width="4" stroke="rgb(255,255,255)" stroke-opacity="0.6" stroke-linejoin="miter" stroke-linecap="butt" stroke-miterlimit="4"/><mask id="_mask_5JPxSwB2k4anAJG77Kk6G1B8QqptAE2K"><path d=" M 40.908 22.508 C 40.903 22.508 40.898 22.507 40.894 22.507 C 40.879 22.507 40.865 22.508 40.85 22.509 C 40.78 22.514 40.714 22.531 40.652 22.558 L 20.131 31.058 C 19.885 31.161 19.735 31.413 19.765 31.679 C 19.795 31.944 19.997 32.157 20.26 32.202 C 23.143 32.692 25.77 34.055 27.858 36.142 C 29.945 38.23 31.308 40.857 31.798 43.74 C 31.843 44.003 32.056 44.205 32.322 44.235 C 32.344 44.237 32.366 44.238 32.389 44.238 C 32.629 44.238 32.848 44.094 32.942 43.869 L 41.439 23.354 C 41.474 23.278 41.493 23.194 41.493 23.106 C 41.493 22.78 41.232 22.515 40.908 22.508 Z " fill="white" stroke="none"/></mask><path d=" M 40.908 22.508 C 40.903 22.508 40.898 22.507 40.894 22.507 C 40.879 22.507 40.865 22.508 40.85 22.509 C 40.78 22.514 40.714 22.531 40.652 22.558 L 20.131 31.058 C 19.885 31.161 19.735 31.413 19.765 31.679 C 19.795 31.944 19.997 32.157 20.26 32.202 C 23.143 32.692 25.77 34.055 27.858 36.142 C 29.945 38.23 31.308 40.857 31.798 43.74 C 31.843 44.003 32.056 44.205 32.322 44.235 C 32.344 44.237 32.366 44.238 32.389 44.238 C 32.629 44.238 32.848 44.094 32.942 43.869 L 41.439 23.354 C 41.474 23.278 41.493 23.194 41.493 23.106 C 41.493 22.78 41.232 22.515 40.908 22.508 Z " fill="none" mask="url(#_mask_5JPxSwB2k4anAJG77Kk6G1B8QqptAE2K)" vector-effect="non-scaling-stroke" stroke-width="4" stroke="rgb(255,255,255)" stroke-linejoin="miter" stroke-linecap="butt" stroke-miterlimit="4"/></g></g></g></svg>