<?xml version="1.0" standalone="no"?><!-- Generator: Gravit.io --><svg xmlns="http://www.w3.org/2000/svg" xmlns:xlink="http://www.w3.org/1999/xlink" style="isolation:isolate" viewBox="0 0 64 64" width="64" height="64"><defs><clipPath id="_clipPath_WyW5pEYSj0QN3VRDiYHiYHqk2NaB5wM0"><rect width="64" height="64"/></clipPath></defs><g clip-path="url(#_clipPath_WyW5pEYSj0QN3VRDiYHiYHqk2NaB5wM0)"><g id="Group"><mask id="_mask_ipHytEDXdX4kcswNyKQpM8mys77WM2Mh"><path d=" M 42.688 24.178 L 42.688 35.072 C 42.688 39.307 41.565 42.002 37.8 42.607 L 37.8 42.607 C 36.485 42.864 33.748 42.774 32.007 42.774 L 32.007 42.774 L 32.007 36.305 C 32.007 36.247 31.999 36.141 31.984 36.087 L 31.984 36.087 C 31.911 35.825 31.674 35.633 31.394 35.633 L 31.394 35.633 C 31.235 35.632 31.086 35.715 30.933 35.866 L 30.933 35.866 L 14.795 51.998 L 25.628 52 L 37.642 52 C 47.148 52 52 46.525 52 36.303 L 52 36.303 L 52 29.162 L 52 14.856 L 42.688 24.178 Z " fill="white" stroke="none"/></mask><path d=" M 42.688 24.178 L 42.688 35.072 C 42.688 39.307 41.565 42.002 37.8 42.607 L 37.8 42.607 C 36.485 42.864 33.748 42.774 32.007 42.774 L 32.007 42.774 L 32.007 36.305 C 32.007 36.247 31.999 36.141 31.984 36.087 L 31.984 36.087 C 31.911 35.825 31.674 35.633 31.394 35.633 L 31.394 35.633 C 31.235 35.632 31.086 35.715 30.933 35.866 L 30.933 35.866 L 14.795 51.998 L 25.628 52 L 37.642 52 C 47.148 52 52 46.525 52 36.303 L 52 36.303 L 52 29.162 L 52 14.856 L 42.688 24.178 Z " fill="none" mask="url(#_mask_ipHytEDXdX4kcswNyKQpM8mys77WM2Mh)" vector-effect="non-scaling-stroke" stroke-width="4" stroke="rgb(255,255,255)" stroke-opacity="0.6" stroke-linejoin="miter" stroke-linecap="butt" stroke-miterlimit="4"/><mask id="_mask_xteBoJYRenBBAhn0gRiivzeYp4o8P1DP"><path d=" M 26.358 12 C 16.852 12 12 17.475 12 27.698 L 12 27.698 L 12 34.838 L 12 49.144 L 21.312 39.823 L 21.312 28.928 C 21.312 24.693 22.434 21.998 26.2 21.393 L 26.2 21.393 C 27.515 21.136 30.252 21.226 31.993 21.226 L 31.993 21.226 L 31.993 27.695 C 31.993 27.754 32.001 27.859 32.016 27.913 L 32.016 27.913 C 32.089 28.175 32.326 28.367 32.606 28.367 L 32.606 28.367 C 32.765 28.368 32.914 28.285 33.067 28.134 L 33.067 28.134 L 49.205 12.002 L 38.372 12 L 26.358 12 Z " fill="white" stroke="none"/></mask><path d=" M 26.358 12 C 16.852 12 12 17.475 12 27.698 L 12 27.698 L 12 34.838 L 12 49.144 L 21.312 39.823 L 21.312 28.928 C 21.312 24.693 22.434 21.998 26.2 21.393 L 26.2 21.393 C 27.515 21.136 30.252 21.226 31.993 21.226 L 31.993 21.226 L 31.993 27.695 C 31.993 27.754 32.001 27.859 32.016 27.913 L 32.016 27.913 C 32.089 28.175 32.326 28.367 32.606 28.367 L 32.606 28.367 C 32.765 28.368 32.914 28.285 33.067 28.134 L 33.067 28.134 L 49.205 12.002 L 38.372 12 L 26.358 12 Z " fill="none" mask="url(#_mask_xteBoJYRenBBAhn0gRiivzeYp4o8P1DP)" vector-effect="non-scaling-stroke" stroke-width="4" stroke="rgb(255,255,255)" stroke-linejoin="miter" stroke-linecap="butt" stroke-miterlimit="4"/></g></g></svg>