<?xml version="1.0" standalone="no"?><!-- Generator: Gravit.io --><svg xmlns="http://www.w3.org/2000/svg" xmlns:xlink="http://www.w3.org/1999/xlink" style="isolation:isolate" viewBox="0 0 64 64" width="64" height="64"><defs><clipPath id="_clipPath_XYWZEP2LnaA6O483pEBIB7j0M3HenvPJ"><rect width="64" height="64"/></clipPath></defs><g clip-path="url(#_clipPath_XYWZEP2LnaA6O483pEBIB7j0M3HenvPJ)"><g id="Group"><mask id="_mask_RMHj1DO82II47nIICYSXOegBi132cLv6"><path d=" M 16.706 31.301 C 16.706 28.384 19.107 26.596 19.107 26.596 L 37.882 12 L 37.882 28.471 L 47.294 28.471 L 47.294 52 L 19.537 52 C 16.756 52 16.706 49.178 16.706 49.178 L 16.706 31.301 Z " fill="white" stroke="none"/></mask><path d=" M 16.706 31.301 C 16.706 28.384 19.107 26.596 19.107 26.596 L 37.882 12 L 37.882 28.471 L 47.294 28.471 L 47.294 52 L 19.537 52 C 16.756 52 16.706 49.178 16.706 49.178 L 16.706 31.301 Z " fill="none" mask="url(#_mask_RMHj1DO82II47nIICYSXOegBi132cLv6)" vector-effect="non-scaling-stroke" stroke-width="4" stroke="rgb(255,255,255)" stroke-linejoin="miter" stroke-linecap="butt" stroke-miterlimit="4"/><mask id="_mask_pGlu7QiZP4gzduyEl6BXO5JRaPqs716Q"><path d=" M 31.294 26.824 C 32.612 26.259 33.647 26.824 33.647 28.142 C 33.647 29.46 32.612 30.967 31.294 31.579 C 29.976 32.143 28.941 31.579 28.941 30.261 C 28.941 28.897 29.978 27.393 31.294 26.824 Z " fill="white" stroke="none"/></mask><path d=" M 31.294 26.824 C 32.612 26.259 33.647 26.824 33.647 28.142 C 33.647 29.46 32.612 30.967 31.294 31.579 C 29.976 32.143 28.941 31.579 28.941 30.261 C 28.941 28.897 29.978 27.393 31.294 26.824 Z " fill="none" mask="url(#_mask_pGlu7QiZP4gzduyEl6BXO5JRaPqs716Q)" vector-effect="non-scaling-stroke" stroke-width="4" stroke="rgb(255,255,255)" stroke-opacity="0.6" stroke-linejoin="miter" stroke-linecap="butt" stroke-miterlimit="4"/><path d=" M 19.421 50.368 L 36.9 37.9 L 36.9 30.8" fill="none" vector-effect="non-scaling-stroke" stroke-width="2" stroke="rgb(255,255,255)" stroke-linejoin="miter" stroke-linecap="square" stroke-miterlimit="3"/></g></g></svg>