<?xml version="1.0" standalone="no"?><!-- Generator: Gravit.io --><svg xmlns="http://www.w3.org/2000/svg" xmlns:xlink="http://www.w3.org/1999/xlink" style="isolation:isolate" viewBox="0 0 64 64" width="64" height="64"><defs><clipPath id="_clipPath_HDsb53WZTLcZWtho0lnNIVHy3Muj9di6"><rect width="64" height="64"/></clipPath></defs><g clip-path="url(#_clipPath_HDsb53WZTLcZWtho0lnNIVHy3Muj9di6)"><g id="Group"><mask id="_mask_u5QAyKsnQsmtf72CZpzlCKz8BSxEqBhA"><path d=" M 40.759 14.714 C 39.092 12.814 36.08 12 32.226 12 L 21.04 12 C 20.252 12 19.581 12.573 19.458 13.351 L 14.8 42.89 C 14.708 43.472 15.159 44 15.749 44 L 22.655 44 L 24.389 32.999 L 24.335 33.344 C 24.459 32.566 25.124 31.993 25.911 31.993 L 29.193 31.993 C 35.639 31.993 40.687 29.374 42.162 21.8 C 42.206 21.576 42.243 21.358 42.276 21.145 C 42.09 21.046 42.09 21.046 42.276 21.145 C 42.715 18.345 42.273 16.439 40.759 14.714" fill="white" stroke="none"/></mask><path d=" M 40.759 14.714 C 39.092 12.814 36.08 12 32.226 12 L 21.04 12 C 20.252 12 19.581 12.573 19.458 13.351 L 14.8 42.89 C 14.708 43.472 15.159 44 15.749 44 L 22.655 44 L 24.389 32.999 L 24.335 33.344 C 24.459 32.566 25.124 31.993 25.911 31.993 L 29.193 31.993 C 35.639 31.993 40.687 29.374 42.162 21.8 C 42.206 21.576 42.243 21.358 42.276 21.145 C 42.09 21.046 42.09 21.046 42.276 21.145 C 42.715 18.345 42.273 16.439 40.759 14.714" fill="none" mask="url(#_mask_u5QAyKsnQsmtf72CZpzlCKz8BSxEqBhA)" vector-effect="non-scaling-stroke" stroke-width="4" stroke="rgb(255,255,255)" stroke-opacity="0.6" stroke-linejoin="miter" stroke-linecap="butt" stroke-miterlimit="4"/><mask id="_mask_Na5nOCpARyRrxpQvLVzFLgtPTG3Ao7Rf"><path d=" M 47.533 22.714 C 45.867 20.815 42.854 20 39 20 L 27.814 20 C 27.026 20 26.356 20.573 26.232 21.351 L 21.575 50.89 C 21.482 51.473 21.933 52 22.523 52 L 29.429 52 L 31.163 41 L 31.11 41.344 C 31.233 40.566 31.898 39.993 32.686 39.993 L 35.967 39.993 C 42.414 39.993 47.462 37.375 48.936 29.8 C 48.98 29.576 49.018 29.358 49.051 29.145 C 48.864 29.046 48.864 29.046 49.051 29.145 C 49.49 26.345 49.048 24.439 47.533 22.714" fill="white" stroke="none"/></mask><path d=" M 47.533 22.714 C 45.867 20.815 42.854 20 39 20 L 27.814 20 C 27.026 20 26.356 20.573 26.232 21.351 L 21.575 50.89 C 21.482 51.473 21.933 52 22.523 52 L 29.429 52 L 31.163 41 L 31.11 41.344 C 31.233 40.566 31.898 39.993 32.686 39.993 L 35.967 39.993 C 42.414 39.993 47.462 37.375 48.936 29.8 C 48.98 29.576 49.018 29.358 49.051 29.145 C 48.864 29.046 48.864 29.046 49.051 29.145 C 49.49 26.345 49.048 24.439 47.533 22.714" fill="none" mask="url(#_mask_Na5nOCpARyRrxpQvLVzFLgtPTG3Ao7Rf)" vector-effect="non-scaling-stroke" stroke-width="4" stroke="rgb(255,255,255)" stroke-linejoin="miter" stroke-linecap="butt" stroke-miterlimit="4"/></g></g></svg>