<?xml version="1.0" standalone="no"?><!-- Generator: Gravit.io --><svg xmlns="http://www.w3.org/2000/svg" xmlns:xlink="http://www.w3.org/1999/xlink" style="isolation:isolate" viewBox="0 0 64 64" width="64" height="64"><defs><clipPath id="_clipPath_KkxefZeta0sLhpLGqJMOgAMYc6gMYEQp"><rect width="64" height="64"/></clipPath></defs><g clip-path="url(#_clipPath_KkxefZeta0sLhpLGqJMOgAMYc6gMYEQp)"><g id="Group"><mask id="_mask_On3IW0fisCxc7S7lLqseOM2SeE5WSY2u"><path d=" M 25.56 11 C 37.32 11 26.68 11 38.44 11 C 50.2 11 53 13.8 53 25.56 C 53 37.32 53 26.68 53 38.44 C 53 50.2 50.2 53 38.44 53 C 26.68 53 37.32 53 25.56 53 C 13.8 53 11 50.2 11 38.44 C 11 26.68 11 32.127 11 25.56 C 11 13.8 13.8 11 25.56 11 Z " fill-rule="evenodd" fill="white" stroke="none"/></mask><path d=" M 25.56 11 C 37.32 11 26.68 11 38.44 11 C 50.2 11 53 13.8 53 25.56 C 53 37.32 53 26.68 53 38.44 C 53 50.2 50.2 53 38.44 53 C 26.68 53 37.32 53 25.56 53 C 13.8 53 11 50.2 11 38.44 C 11 26.68 11 32.127 11 25.56 C 11 13.8 13.8 11 25.56 11 Z " fill-rule="evenodd" fill="none" mask="url(#_mask_On3IW0fisCxc7S7lLqseOM2SeE5WSY2u)" vector-effect="non-scaling-stroke" stroke-width="4" stroke="rgb(255,255,255)" stroke-opacity="0.6" stroke-linejoin="miter" stroke-linecap="butt" stroke-miterlimit="4"/><path d=" M 44.403 25.325 C 44.584 24.722 44.403 24.279 43.543 24.279 L 40.699 24.279 C 39.976 24.279 39.642 24.662 39.461 25.084 C 39.461 25.084 38.015 28.61 35.966 30.9 C 35.303 31.563 35.001 31.774 34.64 31.774 C 34.459 31.774 34.197 31.563 34.197 30.96 L 34.197 25.325 C 34.197 24.602 33.987 24.279 33.385 24.279 L 28.915 24.279 C 28.463 24.279 28.191 24.615 28.191 24.933 C 28.191 25.619 29.216 25.777 29.321 27.706 L 29.321 31.894 C 29.321 32.813 29.155 32.979 28.794 32.979 C 27.829 32.979 25.484 29.438 24.093 25.385 C 23.82 24.598 23.547 24.279 22.82 24.279 L 19.975 24.279 C 19.163 24.279 19 24.662 19 25.084 C 19 25.837 19.964 29.574 23.49 34.516 C 25.84 37.891 29.152 39.721 32.166 39.721 C 33.974 39.721 34.197 39.314 34.197 38.614 L 34.197 36.063 C 34.197 35.251 34.369 35.089 34.941 35.089 C 35.363 35.089 36.086 35.299 37.774 36.927 C 39.702 38.855 40.02 39.721 41.105 39.721 L 43.95 39.721 C 44.762 39.721 45.169 39.314 44.934 38.512 C 44.678 37.713 43.757 36.554 42.535 35.179 C 41.872 34.395 40.878 33.552 40.576 33.13 C 40.154 32.587 40.275 32.346 40.576 31.864 C 40.576 31.864 44.042 26.982 44.403 25.325 Z " fill-rule="evenodd" fill="none" vector-effect="non-scaling-stroke" stroke-width="2" stroke="rgb(255,255,255)" stroke-linejoin="miter" stroke-linecap="butt" stroke-miterlimit="4"/></g></g></svg>