<?xml version="1.0" standalone="no"?><!-- Generator: Gravit.io --><svg xmlns="http://www.w3.org/2000/svg" xmlns:xlink="http://www.w3.org/1999/xlink" style="isolation:isolate" viewBox="0 0 64 64" width="64" height="64"><defs><clipPath id="_clipPath_VlaZjeKdxP8EWSIuyT1jsmftyoKSeemL"><rect width="64" height="64"/></clipPath></defs><g clip-path="url(#_clipPath_VlaZjeKdxP8EWSIuyT1jsmftyoKSeemL)"><g id="Group"><mask id="_mask_eeRYiTJykTmaqKI8fEgWRFvLA2ALq6wU"><path d=" M 25.56 11 C 37.32 11 26.68 11 38.44 11 C 50.2 11 53 13.8 53 25.56 C 53 37.32 53 26.68 53 38.44 C 53 50.2 50.2 53 38.44 53 C 26.68 53 37.32 53 25.56 53 C 13.8 53 11 50.2 11 38.44 C 11 26.68 11 32.127 11 25.56 C 11 13.8 13.8 11 25.56 11 Z " fill-rule="evenodd" fill="white" stroke="none"/></mask><path d=" M 25.56 11 C 37.32 11 26.68 11 38.44 11 C 50.2 11 53 13.8 53 25.56 C 53 37.32 53 26.68 53 38.44 C 53 50.2 50.2 53 38.44 53 C 26.68 53 37.32 53 25.56 53 C 13.8 53 11 50.2 11 38.44 C 11 26.68 11 32.127 11 25.56 C 11 13.8 13.8 11 25.56 11 Z " fill-rule="evenodd" fill="none" mask="url(#_mask_eeRYiTJykTmaqKI8fEgWRFvLA2ALq6wU)" vector-effect="non-scaling-stroke" stroke-width="4" stroke="rgb(255,255,255)" stroke-opacity="0.6" stroke-linejoin="miter" stroke-linecap="butt" stroke-miterlimit="4"/><mask id="_mask_aEi5g9NeMkXJ5WtS0gqjAvgdVA2M1eT4"><path d=" M 45.395 25.469 C 45.59 24.821 45.395 24.344 44.469 24.344 L 41.406 24.344 C 40.628 24.344 40.269 24.756 40.074 25.21 C 40.074 25.21 38.517 29.006 36.31 31.472 C 35.597 32.186 35.272 32.413 34.883 32.413 C 34.688 32.413 34.406 32.186 34.406 31.537 L 34.406 25.469 C 34.406 24.691 34.18 24.344 33.531 24.344 L 28.719 24.344 C 28.232 24.344 27.94 24.705 27.94 25.048 C 27.94 25.786 29.043 25.956 29.156 28.033 L 29.156 32.542 C 29.156 33.531 28.978 33.711 28.588 33.711 C 27.55 33.711 25.025 29.897 23.527 25.534 C 23.233 24.686 22.939 24.344 22.156 24.344 L 19.094 24.344 C 18.219 24.344 18.044 24.756 18.044 25.21 C 18.044 26.021 19.082 30.044 22.878 35.365 C 25.409 38.999 28.974 40.969 32.219 40.969 C 34.165 40.969 34.406 40.531 34.406 39.778 L 34.406 37.031 C 34.406 36.156 34.591 35.982 35.207 35.982 C 35.661 35.982 36.44 36.209 38.257 37.961 C 40.333 40.037 40.676 40.969 41.844 40.969 L 44.906 40.969 C 45.781 40.969 46.219 40.531 45.966 39.668 C 45.69 38.807 44.699 37.559 43.383 36.079 C 42.67 35.235 41.599 34.327 41.274 33.873 C 40.82 33.289 40.95 33.029 41.274 32.51 C 41.274 32.51 45.006 27.254 45.395 25.469 Z " fill-rule="evenodd" fill="white" stroke="none"/></mask><path d=" M 45.395 25.469 C 45.59 24.821 45.395 24.344 44.469 24.344 L 41.406 24.344 C 40.628 24.344 40.269 24.756 40.074 25.21 C 40.074 25.21 38.517 29.006 36.31 31.472 C 35.597 32.186 35.272 32.413 34.883 32.413 C 34.688 32.413 34.406 32.186 34.406 31.537 L 34.406 25.469 C 34.406 24.691 34.18 24.344 33.531 24.344 L 28.719 24.344 C 28.232 24.344 27.94 24.705 27.94 25.048 C 27.94 25.786 29.043 25.956 29.156 28.033 L 29.156 32.542 C 29.156 33.531 28.978 33.711 28.588 33.711 C 27.55 33.711 25.025 29.897 23.527 25.534 C 23.233 24.686 22.939 24.344 22.156 24.344 L 19.094 24.344 C 18.219 24.344 18.044 24.756 18.044 25.21 C 18.044 26.021 19.082 30.044 22.878 35.365 C 25.409 38.999 28.974 40.969 32.219 40.969 C 34.165 40.969 34.406 40.531 34.406 39.778 L 34.406 37.031 C 34.406 36.156 34.591 35.982 35.207 35.982 C 35.661 35.982 36.44 36.209 38.257 37.961 C 40.333 40.037 40.676 40.969 41.844 40.969 L 44.906 40.969 C 45.781 40.969 46.219 40.531 45.966 39.668 C 45.69 38.807 44.699 37.559 43.383 36.079 C 42.67 35.235 41.599 34.327 41.274 33.873 C 40.82 33.289 40.95 33.029 41.274 32.51 C 41.274 32.51 45.006 27.254 45.395 25.469 Z " fill-rule="evenodd" fill="none" mask="url(#_mask_aEi5g9NeMkXJ5WtS0gqjAvgdVA2M1eT4)" vector-effect="non-scaling-stroke" stroke-width="4" stroke="rgb(255,255,255)" stroke-linejoin="miter" stroke-linecap="butt" stroke-miterlimit="4"/></g></g></svg>