<?xml version="1.0" standalone="no"?><!-- Generator: Gravit.io --><svg xmlns="http://www.w3.org/2000/svg" xmlns:xlink="http://www.w3.org/1999/xlink" style="isolation:isolate" viewBox="0 0 64 64" width="64" height="64"><defs><clipPath id="_clipPath_MqxzvCs1GUtEp9nXIMg5fdJCCy99VFQt"><rect width="64" height="64"/></clipPath></defs><g clip-path="url(#_clipPath_MqxzvCs1GUtEp9nXIMg5fdJCCy99VFQt)"><g id="Group"><mask id="_mask_ysc1hThsq25EBXodT7vuwciIXyExUceo"><path d=" M 50.682 52.885 C 51.962 52.885 53 51.847 53 50.567 L 53 13.203 C 53 11.922 51.962 10.884 50.682 10.884 L 13.318 10.884 C 12.038 10.884 11 11.922 11 13.203 L 11 50.567 C 11 51.847 12.037 52.885 13.318 52.885 L 50.682 52.885 Z " fill="white" stroke="none"/></mask><path d=" M 50.682 52.885 C 51.962 52.885 53 51.847 53 50.567 L 53 13.203 C 53 11.922 51.962 10.884 50.682 10.884 L 13.318 10.884 C 12.038 10.884 11 11.922 11 13.203 L 11 50.567 C 11 51.847 12.037 52.885 13.318 52.885 L 50.682 52.885 Z " fill="none" mask="url(#_mask_ysc1hThsq25EBXodT7vuwciIXyExUceo)" vector-effect="non-scaling-stroke" stroke-width="4" stroke="rgb(255,255,255)" stroke-opacity="0.6" stroke-linejoin="round" stroke-linecap="round" stroke-miterlimit="4"/><mask id="_mask_wgd99DmevlY6CDrDgAhJY5kI4bgljXMW"><path d=" M 39.979 53 L 39.979 36.735 L 45.439 36.735 L 46.256 30.397 L 39.979 30.397 L 39.979 26.35 C 39.979 24.515 40.489 23.264 43.121 23.264 L 46.477 23.262 L 46.477 17.593 C 45.897 17.516 43.904 17.343 41.586 17.343 C 36.747 17.343 33.434 20.297 33.434 25.722 L 33.434 30.397 L 27.96 30.397 L 27.96 36.735 L 33.434 36.735 L 33.434 53 L 39.979 53 Z " fill="white" stroke="none"/></mask><path d=" M 39.979 53 L 39.979 36.735 L 45.439 36.735 L 46.256 30.397 L 39.979 30.397 L 39.979 26.35 C 39.979 24.515 40.489 23.264 43.121 23.264 L 46.477 23.262 L 46.477 17.593 C 45.897 17.516 43.904 17.343 41.586 17.343 C 36.747 17.343 33.434 20.297 33.434 25.722 L 33.434 30.397 L 27.96 30.397 L 27.96 36.735 L 33.434 36.735 L 33.434 53 L 39.979 53 Z " fill="none" mask="url(#_mask_wgd99DmevlY6CDrDgAhJY5kI4bgljXMW)" vector-effect="non-scaling-stroke" stroke-width="4" stroke="rgb(255,255,255)" stroke-linejoin="miter" stroke-linecap="butt" stroke-miterlimit="4"/></g></g></svg>