<?xml version="1.0" standalone="no"?><!-- Generator: Gravit.io --><svg xmlns="http://www.w3.org/2000/svg" xmlns:xlink="http://www.w3.org/1999/xlink" style="isolation:isolate" viewBox="0 0 64 64" width="64" height="64"><defs><clipPath id="_clipPath_J4vmRErZaOrT83all6zktb6Xp2ZAhS1z"><rect width="64" height="64"/></clipPath></defs><g clip-path="url(#_clipPath_J4vmRErZaOrT83all6zktb6Xp2ZAhS1z)"><g id="Group"><mask id="_mask_OFP7YObaB4mUP8oR8xw4oFxQspPsow5a"><path d=" M 53 32 C 53 43.598 43.598 53 32 53 C 20.402 53 11 43.598 11 32 C 11 20.402 20.402 11 32 11 C 43.598 11 53 20.402 53 32 Z " fill="white" stroke="none"/></mask><path d=" M 53 32 C 53 43.598 43.598 53 32 53 C 20.402 53 11 43.598 11 32 C 11 20.402 20.402 11 32 11 C 43.598 11 53 20.402 53 32 Z " fill="none" mask="url(#_mask_OFP7YObaB4mUP8oR8xw4oFxQspPsow5a)" vector-effect="non-scaling-stroke" stroke-width="4" stroke="rgb(255,255,255)" stroke-opacity="0.6" stroke-linejoin="miter" stroke-linecap="butt" stroke-miterlimit="4"/><mask id="_mask_5MQaZUySUErB071iiajtBpjIKBirYZhK"><path d=" M 36.637 36.797 C 37.283 35.032 39.649 28.316 40.029 26.555 C 40.458 24.564 39.559 24.369 37.515 25.037 C 35.47 25.705 30.226 27.649 29.343 27.962 C 28.461 28.275 24.164 29.72 23.273 30.15 C 21.454 31.126 22.339 32.616 24.373 33.389 C 30.453 36.308 28.726 34.82 31.441 40.22 C 31.999 41.6 33.316 43.95 34.578 42.173 C 35.241 41.163 36.129 38.186 36.637 36.797 L 36.637 36.797 Z " fill="white" stroke="none"/></mask><path d=" M 36.637 36.797 C 37.283 35.032 39.649 28.316 40.029 26.555 C 40.458 24.564 39.559 24.369 37.515 25.037 C 35.47 25.705 30.226 27.649 29.343 27.962 C 28.461 28.275 24.164 29.72 23.273 30.15 C 21.454 31.126 22.339 32.616 24.373 33.389 C 30.453 36.308 28.726 34.82 31.441 40.22 C 31.999 41.6 33.316 43.95 34.578 42.173 C 35.241 41.163 36.129 38.186 36.637 36.797 L 36.637 36.797 Z " fill="none" mask="url(#_mask_5MQaZUySUErB071iiajtBpjIKBirYZhK)" vector-effect="non-scaling-stroke" stroke-width="4" stroke="rgb(255,255,255)" stroke-linejoin="miter" stroke-linecap="butt" stroke-miterlimit="4"/></g></g></svg>