<?xml version="1.0" standalone="no"?><!-- Generator: Gravit.io --><svg xmlns="http://www.w3.org/2000/svg" xmlns:xlink="http://www.w3.org/1999/xlink" style="isolation:isolate" viewBox="0 0 96 96" width="96" height="96"><defs><clipPath id="_clipPath_9waEnaJ5MSjhfugCHxbijS0LCtULARYz"><rect width="96" height="96"/></clipPath></defs><g clip-path="url(#_clipPath_9waEnaJ5MSjhfugCHxbijS0LCtULARYz)"><mask id="_mask_hmOtx7BypVSs1UOZFLoFY3rDKbcIphfO"><path d=" M 51.685 54.035 C 51.667 54.004 51.563 53.829 51.396 53.555 C 51.252 53.32 50.852 52.648 51.496 52.004 L 52.271 51.229 C 53.344 50.156 53.719 48.688 53.332 47.527 C 53.242 47.258 53.002 46.713 53.47 46.246 L 81.938 17.778 C 83.184 16.532 83.359 14.688 82.329 13.657 C 81.298 12.627 79.454 12.802 78.208 14.047 L 49.739 42.516 C 49.336 42.918 48.677 42.717 48.376 42.627 C 47.229 42.283 45.804 42.666 44.756 43.715 L 43.852 44.618 C 43.369 45.102 42.787 44.81 42.577 44.681 C 42.219 44.46 41.986 44.322 41.949 44.3 C 37.652 41.751 30.254 46.597 29.941 46.846 L 14.587 56.676 C 13.731 57.224 13.06 57.936 13.005 59.029 C 12.95 60.122 13.301 62.67 15.161 66.954 C 16.682 70.459 19.98 74.348 21.189 75.474 C 22.398 76.599 25.449 79.224 29.186 80.859 C 32.068 82.12 35.943 83.225 36.956 82.98 C 37.969 82.734 38.761 82.255 39.309 81.398 L 49.921 64.823 C 50.096 64.55 54.545 57.831 51.685 54.035 Z " fill="white" stroke="none"/></mask><path d=" M 51.685 54.035 C 51.667 54.004 51.563 53.829 51.396 53.555 C 51.252 53.32 50.852 52.648 51.496 52.004 L 52.271 51.229 C 53.344 50.156 53.719 48.688 53.332 47.527 C 53.242 47.258 53.002 46.713 53.47 46.246 L 81.938 17.778 C 83.184 16.532 83.359 14.688 82.329 13.657 C 81.298 12.627 79.454 12.802 78.208 14.047 L 49.739 42.516 C 49.336 42.918 48.677 42.717 48.376 42.627 C 47.229 42.283 45.804 42.666 44.756 43.715 L 43.852 44.618 C 43.369 45.102 42.787 44.81 42.577 44.681 C 42.219 44.46 41.986 44.322 41.949 44.3 C 37.652 41.751 30.254 46.597 29.941 46.846 L 14.587 56.676 C 13.731 57.224 13.06 57.936 13.005 59.029 C 12.95 60.122 13.301 62.67 15.161 66.954 C 16.682 70.459 19.98 74.348 21.189 75.474 C 22.398 76.599 25.449 79.224 29.186 80.859 C 32.068 82.12 35.943 83.225 36.956 82.98 C 37.969 82.734 38.761 82.255 39.309 81.398 L 49.921 64.823 C 50.096 64.55 54.545 57.831 51.685 54.035 Z " fill="none" mask="url(#_mask_hmOtx7BypVSs1UOZFLoFY3rDKbcIphfO)" vector-effect="non-scaling-stroke" stroke-width="4" stroke="rgb(255,255,255)" stroke-opacity="0.6" stroke-linejoin="round" stroke-linecap="round" stroke-miterlimit="4"/><mask id="_mask_A8UXlfD65Dxgzz0zkzEer4nTyVaO1KQw"><path d=" M 29.941 46.846 L 14.587 56.676 C 13.731 57.224 13.06 57.936 13.005 59.029 C 12.95 60.122 13.301 62.67 15.161 66.954 C 16.682 70.459 19.98 74.348 21.189 75.474 C 22.398 76.599 25.449 79.224 29.186 80.859 C 32.068 82.12 35.943 83.225 36.956 82.98 C 37.969 82.734 38.761 82.255 39.309 81.398 L 49.921 64.823 C 50.096 64.55 30.254 46.597 29.941 46.846 Z " fill="white" stroke="none"/></mask><path d=" M 29.941 46.846 L 14.587 56.676 C 13.731 57.224 13.06 57.936 13.005 59.029 C 12.95 60.122 13.301 62.67 15.161 66.954 C 16.682 70.459 19.98 74.348 21.189 75.474 C 22.398 76.599 25.449 79.224 29.186 80.859 C 32.068 82.12 35.943 83.225 36.956 82.98 C 37.969 82.734 38.761 82.255 39.309 81.398 L 49.921 64.823 C 50.096 64.55 30.254 46.597 29.941 46.846 Z " fill="none" mask="url(#_mask_A8UXlfD65Dxgzz0zkzEer4nTyVaO1KQw)" vector-effect="non-scaling-stroke" stroke-width="4" stroke="rgb(255,255,255)" stroke-linejoin="round" stroke-linecap="round" stroke-miterlimit="4"/></g></svg>