<?xml version="1.0" standalone="no"?><!-- Generator: Gravit.io --><svg xmlns="http://www.w3.org/2000/svg" xmlns:xlink="http://www.w3.org/1999/xlink" style="isolation:isolate" viewBox="0 0 64 64" width="64" height="64"><defs><clipPath id="_clipPath_GCtcCn8UAw9KrNaMFybh7vOA3InBUgCD"><rect width="64" height="64"/></clipPath></defs><g clip-path="url(#_clipPath_GCtcCn8UAw9KrNaMFybh7vOA3InBUgCD)"><g id="Group"><g opacity="0.6"><path d=" M 44.353 16.926 L 19.647 16.926 L 19.647 12.809 L 44.353 12.809 L 44.353 16.926 Z " fill="rgb(255,255,255)"/></g><g opacity="0.6"><path d=" M 48.529 23.838 L 15.529 23.838 L 15.544 19.544 L 48.544 19.426 L 48.529 23.838 Z " fill="rgb(255,255,255)"/></g><mask id="_mask_q6EbCSJdg0eVr5vV5wt8Jl9k5Mq62Ns4"><path d=" M 52 51.191 L 12 51.191 L 12 26.485 L 52 26.485 L 52 51.191 Z " fill="white" stroke="none"/></mask><path d=" M 52 51.191 L 12 51.191 L 12 26.485 L 52 26.485 L 52 51.191 Z " fill="none" mask="url(#_mask_q6EbCSJdg0eVr5vV5wt8Jl9k5Mq62Ns4)" vector-effect="non-scaling-stroke" stroke-width="4" stroke="rgb(255,255,255)" stroke-linejoin="miter" stroke-linecap="butt" stroke-miterlimit="4"/><g opacity="0.6"><mask id="_mask_YbLtil0ApllPttua02MRW2C8RYCeReuB" x="-200%" y="-200%" width="400%" height="400%"><rect x="0" y="0" width="100%" height="100%" style="fill:white;"/><path d=" M 28.765 42.368 L 36.706 38.25 L 28.765 34.132 L 28.765 42.368 Z " fill="black" stroke="none"/></mask><path d=" M 28.765 42.368 L 36.706 38.25 L 28.765 34.132 L 28.765 42.368 Z " fill="none" mask="url(#_mask_YbLtil0ApllPttua02MRW2C8RYCeReuB)" vector-effect="non-scaling-stroke" stroke-width="4" stroke="rgb(255,255,255)" stroke-linejoin="miter" stroke-linecap="butt" stroke-miterlimit="4"/></g></g></g></svg>