<?xml version="1.0" standalone="no"?><!-- Generator: Gravit.io --><svg xmlns="http://www.w3.org/2000/svg" xmlns:xlink="http://www.w3.org/1999/xlink" style="isolation:isolate" viewBox="0 0 64 64" width="64" height="64"><defs><clipPath id="_clipPath_jglPMhNop3pwTddGZSQZjbsubdeZ0PO4"><rect width="64" height="64"/></clipPath></defs><g clip-path="url(#_clipPath_jglPMhNop3pwTddGZSQZjbsubdeZ0PO4)"><g id="Group"><mask id="_mask_Yn88rXsZ0PkHLjPFH0yHQNshhIsLRZO7"><path d=" M 35.387 14.576 C 34.78 19.135 35.652 20.846 41.162 26.226 Q 45.467 30.43 46.936 33.773 Q 48.14 37.537 47.154 42.294 C 46.167 47.052 40.047 51.501 33.513 51.957 C 26.979 52.413 21.444 49.203 18.115 43.903 C 17.11 42.303 16.114 39.375 16.479 34.73 C 16.654 32.494 17.092 30.434 17.913 28.505 C 18.666 26.733 19.483 25.973 20.141 25.973 C 21.002 25.973 21.181 26.378 21.205 28.505 C 21.257 33.152 23.028 35.85 24.244 35.85 C 24.953 35.85 24.917 35.513 24.751 33.672 C 24.214 27.722 24.086 25.375 24.723 22.694 C 25.36 20.013 26.575 18.579 28.347 16.602 C 30.981 13.664 33.124 12.447 34.78 12.044 C 35.616 11.84 35.691 12.297 35.387 14.576 Z " fill="white" stroke="none"/></mask><path d=" M 35.387 14.576 C 34.78 19.135 35.652 20.846 41.162 26.226 Q 45.467 30.43 46.936 33.773 Q 48.14 37.537 47.154 42.294 C 46.167 47.052 40.047 51.501 33.513 51.957 C 26.979 52.413 21.444 49.203 18.115 43.903 C 17.11 42.303 16.114 39.375 16.479 34.73 C 16.654 32.494 17.092 30.434 17.913 28.505 C 18.666 26.733 19.483 25.973 20.141 25.973 C 21.002 25.973 21.181 26.378 21.205 28.505 C 21.257 33.152 23.028 35.85 24.244 35.85 C 24.953 35.85 24.917 35.513 24.751 33.672 C 24.214 27.722 24.086 25.375 24.723 22.694 C 25.36 20.013 26.575 18.579 28.347 16.602 C 30.981 13.664 33.124 12.447 34.78 12.044 C 35.616 11.84 35.691 12.297 35.387 14.576 Z " fill="none" mask="url(#_mask_Yn88rXsZ0PkHLjPFH0yHQNshhIsLRZO7)" vector-effect="non-scaling-stroke" stroke-width="4" stroke="rgb(255,255,255)" stroke-linejoin="miter" stroke-linecap="butt" stroke-miterlimit="4"/><g opacity="0.6"><mask id="_mask_0Xips1vVG7LnZQfvuwxjYu4n28MntniR"><path d=" M 32.551 31.544 C 32.551 32.203 32.811 33.924 33.108 35.343 C 33.564 37.521 33.369 38.904 32.741 39.924 C 32.148 40.887 31.892 41.206 30.778 42.131 C 30.374 42.466 29.662 42.736 29.512 42.84 C 28.853 43.296 31.437 44.461 33.108 44.461 C 36.856 44.461 39.957 40.179 38.528 36.964 C 37.92 35.597 33.496 30.23 32.804 30.278 C 32.653 30.289 32.551 30.835 32.551 31.544 Z " fill="white" stroke="none"/></mask><path d=" M 32.551 31.544 C 32.551 32.203 32.811 33.924 33.108 35.343 C 33.564 37.521 33.369 38.904 32.741 39.924 C 32.148 40.887 31.892 41.206 30.778 42.131 C 30.374 42.466 29.662 42.736 29.512 42.84 C 28.853 43.296 31.437 44.461 33.108 44.461 C 36.856 44.461 39.957 40.179 38.528 36.964 C 37.92 35.597 33.496 30.23 32.804 30.278 C 32.653 30.289 32.551 30.835 32.551 31.544 Z " fill="none" mask="url(#_mask_0Xips1vVG7LnZQfvuwxjYu4n28MntniR)" vector-effect="non-scaling-stroke" stroke-width="4" stroke="rgb(255,255,255)" stroke-linejoin="miter" stroke-linecap="butt" stroke-miterlimit="4"/></g></g></g></svg>